<?xml version="1.0" standalone="no"?>
<!DOCTYPE svg PUBLIC "-//W3C//DTD SVG 20010904//EN"
 "http://www.w3.org/TR/2001/REC-SVG-20010904/DTD/svg10.dtd">
<svg version="1.0" xmlns="http://www.w3.org/2000/svg"
 width="768.000000pt" height="768.000000pt" viewBox="0 0 768.000000 768.000000"
 preserveAspectRatio="xMidYMid meet">
<metadata>
Created by potrace 1.11, written by Peter Selinger 2001-2013
</metadata>
<g transform="translate(0.000000,768.000000) scale(0.100000,-0.100000)"
fill="#000000" stroke="none">
<path d="M4155 7565 c-4 -18 -10 -55 -20 -125 -2 -14 -6 -38 -9 -55 -3 -16 -8
-48 -11 -70 -3 -22 -8 -51 -10 -65 -3 -14 -7 -38 -9 -55 -35 -219 -46 -287
-51 -305 -2 -8 -7 -37 -10 -65 -3 -27 -19 -129 -35 -225 -16 -96 -32 -192 -35
-212 -13 -98 -16 -115 -20 -143 -3 -16 -7 -41 -10 -55 -3 -14 -7 -38 -9 -55
-5 -28 -32 -200 -41 -255 -12 -75 -67 -419 -72 -445 -2 -16 -6 -41 -8 -55 -2
-14 -6 -38 -9 -55 -3 -16 -12 -75 -21 -130 -24 -149 -25 -158 -30 -185 -3 -14
-7 -43 -10 -65 -3 -22 -7 -51 -10 -65 -3 -14 -8 -45 -11 -70 -6 -43 -8 -55
-18 -110 -3 -14 -7 -41 -10 -60 -9 -59 -17 -114 -22 -140 -2 -14 -7 -41 -10
-60 -3 -19 -7 -46 -10 -60 -2 -14 -6 -43 -9 -65 -3 -22 -7 -51 -10 -65 -9 -45
-24 -134 -30 -175 -3 -22 -7 -51 -10 -65 -3 -14 -7 -41 -9 -60 -3 -19 -14 -93
-26 -165 -26 -158 -28 -170 -35 -220 -7 -48 -13 -83 -19 -110 -2 -11 -7 -42
-10 -70 -4 -27 -16 -104 -27 -170 -11 -66 -22 -133 -25 -150 -3 -16 -7 -42 -9
-56 -3 -14 -7 -43 -10 -63 -2 -21 -6 -46 -9 -55 -3 -9 -7 -38 -11 -66 -3 -27
-10 -72 -15 -100 -5 -27 -12 -68 -15 -90 -3 -22 -10 -65 -15 -95 -11 -65 -17
-101 -25 -155 -3 -23 -8 -52 -10 -65 -3 -14 -7 -43 -10 -65 -3 -22 -7 -51 -10
-65 -2 -14 -7 -38 -9 -55 -3 -16 -12 -70 -20 -120 -8 -49 -18 -108 -21 -130
-3 -23 -7 -52 -10 -65 -3 -14 -16 -99 -30 -190 -15 -91 -28 -174 -30 -185 -3
-11 -7 -38 -10 -59 -3 -22 -7 -41 -8 -42 -1 -2 -53 99 -114 224 -181 366 -513
1042 -680 1382 -86 173 -215 437 -288 585 -73 149 -210 427 -304 618 l-170
348 -580 -291 -579 -290 65 -122 c36 -68 66 -124 67 -124 0 -1 28 11 61 27 82
39 221 102 338 155 54 25 149 69 212 98 63 30 122 57 133 60 15 5 30 -18 95
-151 42 -87 133 -275 202 -418 70 -143 158 -323 195 -400 37 -77 107 -221 155
-320 48 -99 125 -256 170 -350 178 -366 256 -528 355 -730 56 -115 133 -273
170 -350 37 -77 107 -221 155 -320 119 -245 257 -529 346 -713 41 -83 77 -152
80 -152 3 0 9 21 12 48 4 26 9 58 12 72 2 14 7 43 10 65 4 34 34 224 50 315 6
30 36 226 40 257 2 12 6 34 9 50 3 15 8 46 11 68 3 22 8 51 10 65 3 14 7 43
10 65 3 22 10 63 15 90 5 28 18 109 29 180 11 72 22 144 25 160 27 161 46 278
51 320 4 28 8 57 10 65 3 8 7 33 10 55 3 22 8 51 10 65 3 14 7 41 10 60 3 19
10 60 15 90 5 30 12 73 15 95 2 22 7 51 10 65 2 13 7 42 10 65 4 22 17 105 30
185 13 80 26 162 29 183 3 20 9 54 12 75 3 20 7 48 10 62 2 14 7 41 10 60 3
19 9 60 15 90 5 30 12 73 15 95 3 22 9 63 15 90 5 28 11 64 13 80 2 17 11 75
20 130 23 147 27 175 32 198 2 12 6 39 10 62 3 22 26 164 50 315 25 151 52
320 60 375 8 55 22 141 30 190 17 102 16 94 44 275 12 74 23 146 26 160 2 14
9 54 14 90 6 36 13 76 15 90 2 14 7 43 10 65 3 22 8 51 10 65 5 28 6 30 35
215 11 72 23 141 25 155 2 14 7 43 10 65 3 22 10 65 15 95 5 30 12 73 15 95 3
22 10 65 15 95 5 30 12 69 14 85 3 17 7 44 10 60 6 33 25 154 32 200 3 17 7
46 9 65 3 19 7 46 10 60 8 38 12 60 19 113 4 27 9 57 11 67 2 9 6 35 10 56 5
37 43 271 66 416 6 36 12 75 13 85 3 17 55 18 1427 23 l1424 5 1 133 c1 72 -1
133 -5 133 -3 1 -698 2 -1544 3 -1531 1 -1538 1 -1542 -19z"/>
</g>
</svg>
